HIERARCHY
ROOT ui
{
	 OFFSET 0 0 0
	 CHANNELS 3 XPosition YPosition Z Position
	 EndSite
	 {
	 OFFSET 0 -1 0
	 }
}
ROOT li
{
	 OFFSET 0 0 0
	 CHANNELS 3 XPosition YPosition Z Position
	 EndSite
	 {
	 OFFSET 0 -1 0
	 }
}
ROOT ul
{
	 OFFSET 0 0 0
	 CHANNELS 3 XPosition YPosition Z Position
	 EndSite
	 {
	 OFFSET 0 -1 0
	 }
}
ROOT ll
{
	 OFFSET 0 0 0
	 CHANNELS 3 XPosition YPosition Z Position
	 EndSite
	 {
	 OFFSET 0 -1 0
	 }
}
ROOT tt
{
	 OFFSET 0 0 0
	 CHANNELS 3 XPosition YPosition Z Position
	 EndSite
	 {
	 OFFSET 0 -1 0
	 }
}
ROOT tb
{
	 OFFSET 0 0 0
	 CHANNELS 3 XPosition YPosition Z Position
	 EndSite
	 {
	 OFFSET 0 -1 0
	 }
}
ROOT td
{
	 OFFSET 0 0 0
	 CHANNELS 3 XPosition YPosition Z Position
	 EndSite
	 {
	 OFFSET 0 -1 0
	 }
}
ROOT v
{
	 OFFSET 0 0 0
	 CHANNELS 3 XPosition YPosition Z Position
	 EndSite
	 {
	 OFFSET 0 -1 0
	 }
}
ROOT bn
{
	 OFFSET 0 0 0
	 CHANNELS 3 XPosition YPosition Z Position
	 EndSite
	 {
	 OFFSET 0 -1 0
	 }
}
MOTION
Frames: 10
Frame Time: 0.002
0.0040715160369873046	0.0037521710395812986	0		0.42453958129882813	-2.61784619140625	0		-1.098470458984375	0.2808916015625	0		-0.692744384765625	-3.1795869140625	0		2.16763134765625	-0.4349855651855469	0		3.5643583984375	-0.15284580993652344	0		4.8056533203125	-0.13773785400390626	0		5.8127314453125	0.25239971923828125	0		-0.1481113739013672	5.92618603515625	0		
-3.139299899339676E-5	-2.460940033197403E-4	0		0.4475066528320312	-2.625171142578125	0		-1.0905093994140624	0.2826932678222656	0		-0.62983349609375	-3.19346875	0		2.152522216796875	-0.44075213623046877	0		3.564312744140625	-0.15274545288085936	0		4.7897236328125	-0.12838174438476563	0		5.81346435546875	0.23658334350585938	0		-0.015143160820007323	5.94643115234375	0		
-8.578400313854218E-5	-2.990599870681763E-4	0		0.4185738525390625	-2.6248349609375	0		-1.1237392578125	0.2700114440917969	0		-0.6766118774414063	-3.18295361328125	0		2.12556640625	-0.4343644409179688	0		3.536267578125	-0.1522804412841797	0		4.7636005859375	-0.13388601684570312	0		5.799501953125	0.24497186279296876	0		-0.14873670959472657	5.9260703125	0		
-0.004180365085601807	-0.003304474115371704	0		0.4456153259277344	-2.627213134765625	0		-1.0956973876953124	0.2785457763671875	0		-0.6435820922851563	-3.1884599609375	0		2.08349560546875	-0.4367864990234375	0		3.53315478515625	-0.15712875366210938	0		4.75155126953125	-0.13356182861328125	0		5.79531982421875	0.23624510192871093	0		-0.18315113830566407	5.92043798828125	0		
-2.0201200246810913E-4	-4.150800108909607E-4	0		0.4227762451171875	-2.619961181640625	0		-1.1347674560546874	0.27892398071289065	0		-0.6624820556640625	-3.188311767578125	0		2.05362451171875	-0.42336550903320314	0		3.50510546875	-0.15666017150878905	0		4.727689453125	-0.1180845947265625	0		5.79113525390625	0.22752354431152344	0		-0.1494306182861328	5.92593994140625	0		
0.003786608934402466	0.0034715731143951417	0		0.4538689880371094	-2.618392333984375	0		-1.06178564453125	0.28288641357421873	0		-0.6352725219726563	-3.179747802734375	0		2.035635986328125	-0.41909930419921876	0		3.505052001953125	-0.15654708862304687	0		4.70847216796875	-0.13067034912109374	0		5.7910625	0.22775131225585937	0		-0.14978924560546875	5.92586962890625	0		
-3.2621899247169497E-4	-5.433160066604614E-4	0		0.42291448974609375	-2.620046875	0		-1.1109591064453126	0.2753818664550781	0		-0.6351763305664062	-3.179844970703125	0		2.0266197509765624	-0.416950439453125	0		3.47601171875	-0.15507424926757812	0		4.68543017578125	-0.12921241760253907	0		5.7819892578125	0.2280882110595703	0		-0.151135986328125	5.92680908203125	0		
-3.9039498567581177E-4	-6.11378014087677E-4	0		0.44993951416015626	-2.6234306640625	0		-1.092926025390625	0.2840340576171875	0		-0.635084228515625	-3.1799443359375	0		1.98776611328125	-0.40143374633789064	0		3.4499072265625	-0.15864694213867186	0		4.6594990234375	-0.11872677612304687	0		5.7737021484375	0.2114053955078125	0		-0.15149147033691407	5.9267333984375	0		
-0.004492721080780029	-0.0036320319175720214	0		0.4230382080078125	-2.620144775390625	0		-1.121114501953125	0.2752600402832031	0		-0.641823974609375	-3.165959228515625	0		1.98467041015625	-0.4053722229003906	0		3.439775634765625	-0.16442880249023437	0		4.64234130859375	-0.12636400604248046	0		5.7736142578125	0.21060943603515625	0		-0.18492304992675782	5.92006640625	0		
0.003527215003967285	0.0031954410076141357	0		0.4271399536132813	-2.616248046875	0		-1.0771470947265624	0.2785915832519531	0		-0.6916686401367188	-3.159442626953125	0		1.95614453125	-0.36299929809570314	0		3.4437783203125	-0.1593955078125	0		4.63028173828125	-0.12607779693603516	0		5.77863720703125	0.2187359161376953	0		-0.18427015686035156	5.91897265625	0		
